<svg id="Layer_4" data-name="Layer 4" xmlns="http://www.w3.org/2000/svg" viewBox="0 0 36 32">
    <defs>
        <style>.cls-1{fill:none;}.cls-2{fill:#cc2973;}.cls-3{fill:#4555d2;}.cls-4{fill:#191e47;}</style>
    </defs>
    <path class="cls-1" d="M21.752,8.866q-0.872,0-1.717-.053V27.873h0v0.067q0.832,0.074,1.721.073a23.8,23.8,0,0,0,5.811-.749A24.553,24.553,0,0,0,32.1,25.636V7.109q-1.266.429-2.594,0.766A31.729,31.729,0,0,1,21.752,8.866Z"/>
    <path class="cls-1" d="M14.333,3.988a23.807,23.807,0,0,0-5.812.749,24.564,24.564,0,0,0-4.54,1.628V24.891q1.266-.431,2.594-0.766a31.724,31.724,0,0,1,7.758-.991q0.872,0,1.717.053V4.127h0V4.061Q15.221,3.987,14.333,3.988Z"/>
    <path class="cls-2" d="M16.05,23.187q-0.847-.053-1.717-0.053a31.724,31.724,0,0,0-7.758.991q-1.327.335-2.594,0.766V6.364a24.564,24.564,0,0,1,4.54-1.628,23.807,23.807,0,0,1,5.812-.749q0.887,0,1.721.073V4.128a18.061,18.061,0,0,0,1.991.451c0.641,0.108,1.306.188,1.991,0.238V0.75a20.655,20.655,0,0,0-5.7-.75A27.83,27.83,0,0,0,7.548.87,27.221,27.221,0,0,0,0,3.995V31.117a27.221,27.221,0,0,1,7.548-3.125,27.869,27.869,0,0,1,6.785-.87q0.877,0,1.717.062v-4Z"/>
    <path class="cls-3" d="M28.536,4.008a27.869,27.869,0,0,1-6.785.87q-0.877,0-1.717-.062c-0.685-.049-1.35-0.129-1.991-0.238a18.061,18.061,0,0,1-1.991-.451h0V31.25a20.651,20.651,0,0,0,5.7.75,27.834,27.834,0,0,0,6.785-.87,27.229,27.229,0,0,0,7.548-3.125V0.883A27.231,27.231,0,0,1,28.536,4.008ZM32.1,25.636a24.553,24.553,0,0,1-4.541,1.628,23.8,23.8,0,0,1-5.811.749q-0.887,0-1.721-.073V27.872h0V8.813q0.847,0.053,1.717.053a31.729,31.729,0,0,0,7.757-.991Q30.836,7.54,32.1,7.109V25.636Z"/>
</svg>